<svg width="213" height="56" viewBox="0 0 213 56" fill="none" xmlns="http://www.w3.org/2000/svg">
<g clip-path="url(#clip0_15_145)">
<path d="M75.0238 14.9754C77.4112 14.9754 79.3695 15.2812 80.8986 15.893C82.4545 16.4781 83.6079 17.3691 84.3591 18.566C85.1102 19.7628 85.4857 21.2656 85.4857 23.0742C85.4857 24.5902 85.2041 25.8536 84.6407 26.8643C84.0774 27.875 83.3531 28.6862 82.4679 29.2979C81.6094 29.8831 80.6974 30.3485 79.7316 30.6943L87.6184 43.4609H83.3933L76.4321 31.6916H70.7183V43.4609H67.0968V14.9754H75.0238ZM74.8226 18.0872H70.7183V28.6596H75.0238C76.5796 28.6596 77.8538 28.4601 78.8464 28.0611C79.839 27.6356 80.5632 27.0239 81.0193 26.2259C81.5021 25.428 81.7436 24.4306 81.7436 23.2338C81.7436 21.9837 81.4887 20.9863 80.979 20.2416C80.4962 19.4969 79.7451 18.9516 78.7257 18.6059C77.7063 18.2601 76.4053 18.0872 74.8226 18.0872ZM99.9743 21.6778C101.825 21.6778 103.408 22.0768 104.722 22.8747C106.064 23.6726 107.083 24.803 107.781 26.2658C108.505 27.7021 108.867 29.391 108.867 31.3326V33.4471H94.0996C94.1532 35.8674 94.7702 37.7159 95.9504 38.9925C97.1576 40.2425 98.8343 40.8676 100.98 40.8676C102.348 40.8676 103.555 40.748 104.602 40.5086C105.675 40.2425 106.775 39.8703 107.901 39.3915V42.4635C106.801 42.9422 105.715 43.2881 104.642 43.5008C103.569 43.7401 102.295 43.8598 100.819 43.8598C98.7807 43.8598 96.97 43.4477 95.3871 42.6231C93.8313 41.7985 92.6107 40.5752 91.7255 38.9527C90.8671 37.3036 90.4379 35.2955 90.4379 32.9284C90.4379 30.5879 90.8269 28.5798 91.6048 26.9042C92.4096 25.2286 93.5228 23.9386 94.9445 23.0343C96.393 22.13 98.0697 21.6778 99.9743 21.6778ZM99.934 24.5503C98.244 24.5503 96.9028 25.0956 95.9102 26.186C94.9445 27.2499 94.3678 28.7394 94.18 30.6544H105.165C105.165 29.4309 104.977 28.367 104.602 27.4627C104.226 26.5584 103.65 25.8536 102.871 25.3482C102.12 24.8163 101.141 24.5503 99.934 24.5503ZM122.526 21.7177C125.155 21.7177 127.1 22.2896 128.361 23.4332C129.622 24.5769 130.252 26.3988 130.252 28.899V43.4609H127.676L126.992 40.4288H126.831C126.215 41.2 125.571 41.8518 124.9 42.3837C124.256 42.8891 123.505 43.2614 122.647 43.5008C121.815 43.7401 120.796 43.8598 119.589 43.8598C118.301 43.8598 117.134 43.6337 116.088 43.1816C115.069 42.7295 114.264 42.0378 113.674 41.107C113.084 40.1495 112.788 38.9527 112.788 37.5164C112.788 35.3887 113.633 33.7529 115.323 32.6092C117.013 31.439 119.615 30.8007 123.13 30.6943L126.791 30.5746V29.2979C126.791 27.5159 126.402 26.2791 125.624 25.5876C124.846 24.8961 123.747 24.5503 122.325 24.5503C121.198 24.5503 120.125 24.7232 119.106 25.069C118.086 25.3881 117.134 25.7605 116.249 26.186L115.162 23.5529C116.101 23.0476 117.214 22.622 118.502 22.2763C119.79 21.9039 121.131 21.7177 122.526 21.7177ZM123.572 33.1279C120.89 33.2343 119.025 33.6598 117.979 34.4045C116.96 35.1493 116.45 36.1999 116.45 37.5563C116.45 38.7532 116.812 39.6309 117.536 40.1894C118.288 40.748 119.24 41.0272 120.393 41.0272C122.218 41.0272 123.733 40.5353 124.94 39.5511C126.147 38.5404 126.751 36.9978 126.751 34.9232V33.0082L123.572 33.1279ZM144.558 43.8598C141.876 43.8598 139.73 42.9422 138.12 41.107C136.511 39.2452 135.706 36.4791 135.706 32.8087C135.706 29.1383 136.511 26.3722 138.12 24.5104C139.757 22.622 141.916 21.6778 144.599 21.6778C145.725 21.6778 146.705 21.8241 147.536 22.1167C148.368 22.3827 149.092 22.755 149.709 23.2338C150.326 23.7125 150.849 24.2444 151.278 24.8296H151.52C151.493 24.4838 151.439 23.9785 151.359 23.3136C151.305 22.622 151.278 22.0768 151.278 21.6778V13.1402H154.819V43.4609H151.962L151.439 40.5884H151.278C150.849 41.2 150.326 41.7586 149.709 42.264C149.092 42.7427 148.354 43.1285 147.496 43.421C146.664 43.7134 145.685 43.8598 144.558 43.8598ZM145.122 40.9474C147.402 40.9474 148.998 40.3358 149.91 39.1122C150.849 37.8622 151.318 35.9871 151.318 33.4869V32.8486C151.318 30.1889 150.876 28.1542 149.991 26.7446C149.105 25.3083 147.469 24.5902 145.081 24.5902C143.177 24.5902 141.742 25.3482 140.776 26.8643C139.837 28.3537 139.368 30.3618 139.368 32.8885C139.368 35.4418 139.837 37.4233 140.776 38.833C141.742 40.2425 143.19 40.9474 145.122 40.9474ZM183.438 21.9172C185.396 21.9172 186.966 22.5024 188.146 23.6726C189.326 24.8429 189.917 26.6648 189.917 29.1383V43.4609H188.387V29.2181C188.387 27.1967 187.905 25.7073 186.939 24.7498C186 23.7923 184.793 23.3136 183.317 23.3136C181.279 23.3136 179.656 23.8987 178.449 25.069C177.241 26.2392 176.638 28.1276 176.638 30.7341V43.4609H175.109V29.2181C175.109 27.8351 174.881 26.718 174.425 25.8669C173.995 25.0158 173.405 24.3775 172.654 23.9519C171.903 23.5263 171.031 23.3136 170.039 23.3136C168.751 23.3136 167.611 23.5795 166.618 24.1115C165.626 24.6434 164.835 25.4679 164.244 26.585C163.681 27.6755 163.399 29.1117 163.399 30.8937V43.4609H161.83V22.3162H163.078L163.319 25.9866H163.44C163.762 25.2951 164.204 24.6434 164.768 24.0317C165.331 23.42 166.055 22.9146 166.94 22.5156C167.826 22.1167 168.899 21.9172 170.159 21.9172C171.689 21.9172 172.976 22.2763 174.022 22.9944C175.095 23.7125 175.82 24.7631 176.195 26.1462H176.276C176.839 24.8429 177.724 23.8189 178.931 23.0742C180.139 22.3029 181.641 21.9172 183.438 21.9172ZM204.81 21.9172C206.634 21.9172 208.123 22.3561 209.277 23.2338C210.457 24.0849 211.329 25.2552 211.892 26.7446C212.483 28.2074 212.778 29.8697 212.778 31.7315V32.9683H197.165C197.165 36.027 197.863 38.3808 199.258 40.0298C200.653 41.6523 202.664 42.4635 205.293 42.4635C206.608 42.4635 207.734 42.3705 208.673 42.1842C209.639 41.9715 210.725 41.5858 211.933 41.0272V42.5433C210.886 42.9953 209.84 43.328 208.794 43.5407C207.775 43.7533 206.594 43.8598 205.253 43.8598C203.08 43.8598 201.269 43.4078 199.821 42.5034C198.372 41.599 197.299 40.3358 196.602 38.7133C195.904 37.0643 195.556 35.1892 195.556 33.088C195.556 31.0134 195.904 29.1383 196.602 27.4627C197.299 25.7871 198.332 24.4439 199.7 23.4332C201.068 22.4226 202.772 21.9172 204.81 21.9172ZM204.81 23.3136C202.664 23.3136 200.921 24.0184 199.579 25.428C198.238 26.8377 197.447 28.8989 197.205 31.6119H211.168C211.168 29.9628 210.94 28.5133 210.484 27.2632C210.028 26.0132 209.33 25.0424 208.392 24.3508C207.453 23.6593 206.259 23.3136 204.81 23.3136Z" fill="#5A4100"/>
</g>
<g clip-path="url(#clip1_15_145)">
<path fill-rule="evenodd" clip-rule="evenodd" d="M32.928 8.73599L50.2974 17.5117C51.0314 17.8851 51.6114 18.5039 51.9366 19.2605C52.2618 20.0171 52.3118 20.8637 52.0777 21.6533C51.1677 24.759 51.268 26.0633 51.863 27.5357C52.4627 29.0243 52.0474 30.9167 50.4934 31.899L26.4974 47.089C25.4917 47.726 24.2107 47.824 23.0977 47.2803L14.1377 42.8587L10.395 40.9803L7.73503 39.6223L6.11103 38.7707L5.27103 38.3133L4.66203 37.9633C2.28203 36.5283 1.54003 33.6117 1.55403 31.3833C1.56336 29.1177 2.34269 26.2873 4.50569 24.7333L5.20569 24.2503L7.20769 22.9413L11.9794 19.894L29.498 8.89232C30.0083 8.57392 30.592 8.39247 31.1928 8.36549C31.7937 8.33851 32.3913 8.46459 32.928 8.73599ZM46.7437 24.9387L26.5067 37.7487L26.2547 37.8957L25.9957 38.017C25.739 38.969 25.6504 39.6527 25.6597 40.2873C25.6644 40.6653 25.7064 41.0527 25.788 41.4937L25.886 41.9533L47.2314 28.4433L47.0634 27.8623C46.8649 27.103 46.7568 26.323 46.7414 25.5383L46.7437 24.9387ZM6.53336 29.582C6.32271 30.1655 6.21686 30.7816 6.22069 31.402C6.21369 32.97 6.77369 33.789 7.07236 33.9687L7.79103 34.377L9.25169 35.154L13.3817 37.261L21.0234 41.0667C21.0047 40.8314 20.9938 40.5956 20.9907 40.3597C20.9821 39.4868 21.0713 38.6157 21.2567 37.7627L21.413 37.0907L6.53336 29.582ZM32.5827 16.1327C32.0551 15.8544 31.441 15.7887 30.8665 15.9492C30.292 16.1096 29.8008 16.484 29.4938 16.9953C29.1867 17.5067 29.0871 18.1162 29.2155 18.6987C29.3439 19.2812 29.6905 19.7924 30.184 20.1273L30.4174 20.2673L35.3174 22.834C35.8449 23.1122 36.4591 23.1779 37.0335 23.0175C37.608 22.857 38.0992 22.4827 38.4063 21.9713C38.7133 21.4599 38.8129 20.8504 38.6845 20.2679C38.5562 19.6854 38.2096 19.1742 37.716 18.8393L37.4827 18.6993L32.5827 16.1327Z" fill="#5A4100"/>
</g>
<defs>
<clipPath id="clip0_15_145">
<rect width="146" height="31" fill="white" transform="translate(67 13)"/>
</clipPath>
<clipPath id="clip1_15_145">
<rect width="56" height="56" fill="white"/>
</clipPath>
</defs>
</svg>
