<svg width="30" height="30" viewBox="0 0 30 30" fill="none" xmlns="http://www.w3.org/2000/svg">
<rect width="30" height="30" rx="15" fill="url(#paint0_linear_15_160)"/>
<g clip-path="url(#clip0_15_160)">
<path fill-rule="evenodd" clip-rule="evenodd" d="M15.6432 7.18574C15.5865 7.05564 15.4958 6.94546 15.3818 6.86824C15.2678 6.79101 15.1353 6.74997 15 6.74997C14.8647 6.74997 14.7322 6.79101 14.6182 6.86824C14.5043 6.94546 14.4135 7.05564 14.3569 7.18574L12.3239 11.8507L7.50656 12.456C7.37216 12.4728 7.24511 12.53 7.14046 12.6209C7.03581 12.7118 6.95793 12.8325 6.91605 12.9687C6.87417 13.105 6.87004 13.2511 6.90414 13.3898C6.93824 13.5285 7.00915 13.6539 7.10848 13.7512L10.6714 17.2387L9.72577 22.2787C9.6995 22.4192 9.71178 22.5648 9.76115 22.6981C9.81051 22.8314 9.89491 22.947 10.0043 23.0312C10.1138 23.1154 10.2437 23.1646 10.3787 23.1731C10.5138 23.1815 10.6482 23.1489 10.7663 23.079L15 20.5695L19.2337 23.079C19.3519 23.1492 19.4865 23.182 19.6218 23.1737C19.757 23.1653 19.8871 23.116 19.9967 23.0317C20.1063 22.9474 20.1908 22.8316 20.2401 22.698C20.2894 22.5644 20.3015 22.4186 20.275 22.278L19.3294 17.2395L22.8916 13.7512C22.9909 13.6539 23.0618 13.5285 23.0959 13.3898C23.13 13.2511 23.1259 13.105 23.084 12.9687C23.0421 12.8325 22.9642 12.7118 22.8596 12.6209C22.7549 12.53 22.6279 12.4728 22.4935 12.456L17.6754 11.85L15.6432 7.18574Z" fill="white"/>
</g>
<defs>
<linearGradient id="paint0_linear_15_160" x1="15" y1="0" x2="15" y2="30" gradientUnits="userSpaceOnUse">
<stop stop-color="#FFB955"/>
<stop offset="1" stop-color="#FFD770"/>
</linearGradient>
<clipPath id="clip0_15_160">
<rect width="17" height="18" fill="white" transform="translate(6.5 6)"/>
</clipPath>
</defs>
</svg>
