<svg width="19" height="20" viewBox="0 0 19 20" fill="none" xmlns="http://www.w3.org/2000/svg">
<path d="M7.52083 2.5C8.88559 2.5 10.1945 3.07068 11.1595 4.0865C12.1245 5.10233 12.6667 6.48008 12.6667 7.91667C12.6667 9.25833 12.1996 10.4917 11.4317 11.4417L11.6454 11.6667H12.2708L16.2292 15.8333L15.0417 17.0833L11.0833 12.9167V12.2583L10.8696 12.0333C9.93585 12.8723 8.74848 13.3333 7.52083 13.3333C6.15607 13.3333 4.84721 12.7627 3.88218 11.7468C2.91715 10.731 2.375 9.35326 2.375 7.91667C2.375 6.48008 2.91715 5.10233 3.88218 4.0865C4.84721 3.07068 6.15607 2.5 7.52083 2.5ZM7.52083 4.16667C5.54167 4.16667 3.95833 5.83333 3.95833 7.91667C3.95833 10 5.54167 11.6667 7.52083 11.6667C9.5 11.6667 11.0833 10 11.0833 7.91667C11.0833 5.83333 9.5 4.16667 7.52083 4.16667Z" fill="black" fill-opacity="0.4"/>
</svg>
