<svg width="212" height="212" viewBox="0 0 212 212" fill="none" xmlns="http://www.w3.org/2000/svg">
<g clip-path="url(#clip0_15_136)">
<path fill-rule="evenodd" clip-rule="evenodd" d="M124.656 33.072L190.411 66.2942C193.19 67.7079 195.386 70.0504 196.617 72.9148C197.848 75.7791 198.037 78.9842 197.151 81.9733C193.706 93.7305 194.086 98.6683 196.338 104.242C198.609 109.878 197.036 117.042 191.153 120.76L100.311 178.266C96.5042 180.677 91.6547 181.048 87.4412 178.99L53.5212 162.251L39.3525 155.14L29.2825 149.999L23.1345 146.775L19.9545 145.043L17.649 143.718C8.639 138.286 5.83 127.244 5.883 118.808C5.91833 110.231 8.86866 99.5163 17.0572 93.6333L19.7072 91.8048L27.2862 86.8493L45.3503 75.313L111.671 33.6638C113.603 32.4585 115.812 31.7715 118.087 31.6694C120.362 31.5673 122.624 32.0446 124.656 33.072ZM176.958 94.4107L100.347 142.906L99.3927 143.462L98.4122 143.921C97.4405 147.525 97.1048 150.114 97.1402 152.516C97.1578 153.947 97.3168 155.414 97.626 157.083L97.997 158.823L178.804 107.678L178.168 105.479C177.417 102.604 177.008 99.6513 176.949 96.6808L176.958 94.4107ZM24.7333 111.989C23.9359 114.198 23.5351 116.531 23.5497 118.879C23.5232 124.815 25.6432 127.915 26.7738 128.596L29.4945 130.142L35.0242 133.083L50.6592 141.06L79.5883 155.467C79.5176 154.576 79.4763 153.683 79.4647 152.79C79.4322 149.486 79.77 146.188 80.4717 142.959L81.0635 140.415L24.7333 111.989ZM123.349 61.0737C121.351 60.0203 119.027 59.7717 116.852 60.3791C114.677 60.9865 112.817 62.4037 111.655 64.3396C110.492 66.2754 110.115 68.5829 110.601 70.7881C111.087 72.9932 112.399 74.9285 114.268 76.1963L115.151 76.7263L133.701 86.443C135.699 87.4964 138.023 87.7449 140.198 87.1376C142.373 86.5302 144.233 85.113 145.395 83.1771C146.558 81.2412 146.934 78.9337 146.449 76.7286C145.963 74.5235 144.65 72.5882 142.782 71.3203L141.899 70.7903L123.349 61.0737Z" fill="#5A4100"/>
</g>
<defs>
<clipPath id="clip0_15_136">
<rect width="212" height="212" fill="white"/>
</clipPath>
</defs>
</svg>
