<svg width="25" height="25" viewBox="0 0 25 25" fill="none" xmlns="http://www.w3.org/2000/svg">
<path d="M11.4584 15.6249H13.5417V17.7083H11.4584V15.6249ZM11.4584 7.29158H13.5417V13.5416H11.4584V7.29158ZM12.5 2.08325C6.73962 2.08325 2.08337 6.77075 2.08337 12.4999C2.08337 15.2626 3.18084 17.9121 5.13435 19.8656C6.10162 20.8329 7.24995 21.6002 8.51375 22.1237C9.77756 22.6472 11.1321 22.9166 12.5 22.9166C15.2627 22.9166 17.9122 21.8191 19.8657 19.8656C21.8192 17.9121 22.9167 15.2626 22.9167 12.4999C22.9167 11.132 22.6473 9.77744 22.1238 8.51363C21.6003 7.24982 20.833 6.1015 19.8657 5.13422C18.8985 4.16695 17.7501 3.39966 16.4863 2.87617C15.2225 2.35269 13.868 2.08325 12.5 2.08325ZM12.5 20.8333C10.2899 20.8333 8.17029 19.9553 6.60748 18.3925C5.04468 16.8297 4.16671 14.7101 4.16671 12.4999C4.16671 10.2898 5.04468 8.17017 6.60748 6.60736C8.17029 5.04456 10.2899 4.16659 12.5 4.16659C14.7102 4.16659 16.8298 5.04456 18.3926 6.60736C19.9554 8.17017 20.8334 10.2898 20.8334 12.4999C20.8334 14.7101 19.9554 16.8297 18.3926 18.3925C16.8298 19.9553 14.7102 20.8333 12.5 20.8333Z" fill="#EF4444"/>
</svg>
