<svg width="25" height="25" viewBox="0 0 25 25" fill="none" xmlns="http://www.w3.org/2000/svg">
<path d="M23.9583 10.4167C23.9583 9.86421 23.7388 9.33431 23.3481 8.94361C22.9574 8.55291 22.4275 8.33341 21.875 8.33341H15.2916L16.2916 3.573C16.3125 3.46883 16.3229 3.35425 16.3229 3.23966C16.3229 2.81258 16.1458 2.41675 15.8645 2.1355L14.7604 1.04175L7.90621 7.89591C7.52079 8.28133 7.29163 8.80216 7.29163 9.37508V19.7917C7.29163 20.3443 7.51112 20.8742 7.90182 21.2649C8.29252 21.6556 8.82242 21.8751 9.37496 21.8751H18.75C19.6145 21.8751 20.3541 21.3542 20.6666 20.6042L23.8125 13.2605C23.9062 13.0209 23.9583 12.7709 23.9583 12.5001V10.4167ZM1.04163 21.8751H5.20829V9.37508H1.04163V21.8751Z" fill="#5A4100"/>
</svg>
