<svg width="25" height="25" viewBox="0 0 25 25" fill="none" xmlns="http://www.w3.org/2000/svg">
<path d="M5.20829 9.37508V21.8751H1.04163V9.37508H5.20829ZM9.37496 21.8751C8.82242 21.8751 8.29252 21.6556 7.90182 21.2649C7.51112 20.8742 7.29163 20.3443 7.29163 19.7917V9.37508C7.29163 8.80216 7.52079 8.28133 7.90621 7.90633L14.7604 1.04175L15.8645 2.14591C16.1458 2.42716 16.3229 2.81258 16.3229 3.23966L16.2916 3.573L15.302 8.33341H21.875C22.4275 8.33341 22.9574 8.55291 23.3481 8.94361C23.7388 9.33431 23.9583 9.86421 23.9583 10.4167V12.5001C23.9583 12.7709 23.9062 13.0209 23.8125 13.2605L20.6666 20.6042C20.3541 21.3542 19.6145 21.8751 18.75 21.8751H9.37496ZM9.37496 19.7917H18.7812L21.875 12.5001V10.4167H12.7187L13.8958 4.87508L9.37496 9.40633V19.7917Z" fill="#5A4100"/>
</svg>
